<svg width="375" height="544" viewBox="0 0 375 544" fill="none" xmlns="http://www.w3.org/2000/svg">
<path fill-rule="evenodd" clip-rule="evenodd" d="M84.337 347.152C57.5478 304.864 21.937 297.749 0.00137329 238.73V-154.218C0.00137329 -172.996 15.2237 -188.218 34.0014 -188.218H340.689C359.466 -188.218 374.689 -172.996 374.689 -154.218V154.389C374.399 154.49 374.974 154.591 374.689 154.691C360.827 159.551 351.268 162.776 342.705 187.55C325.714 236.71 357.198 299.338 328.212 339.07C306.427 368.932 278.409 380.651 268.333 423.393C261.017 454.43 260.837 541.096 189.986 543.79C119.135 546.484 127.942 415.984 84.337 347.152Z" fill="#FFE2AB"/>
</svg>
