<svg width="307" height="259" viewBox="0 0 307 259" fill="none" xmlns="http://www.w3.org/2000/svg">
<path d="M255.001 18.0008C255.001 13.5825 258.583 10.0008 263.001 10.0008H298.635C303.053 10.0008 306.635 13.5825 306.635 18.0008V172.391C306.635 176.81 303.053 180.391 298.635 180.391H263.001C258.583 180.391 255.001 176.81 255.001 172.391V18.0008Z" fill="#FAD693"/>
<rect x="262.747" y="22.911" width="6.45418" height="15.49" rx="3.22709" fill="#FFECC9"/>
<rect x="262.747" y="46.1453" width="6.45418" height="15.49" rx="3.22709" fill="#FFECC9"/>
<rect x="262.747" y="69.3797" width="6.45418" height="15.49" rx="3.22709" fill="#FFECC9"/>
<rect x="262.747" y="92.6141" width="6.45418" height="15.49" rx="3.22709" fill="#FFECC9"/>
<rect x="262.747" y="115.848" width="6.45418" height="15.49" rx="3.22709" fill="#FFECC9"/>
<rect x="262.747" y="139.083" width="6.45418" height="15.49" rx="3.22709" fill="#FFECC9"/>
<rect x="276.946" y="22.911" width="6.45418" height="15.49" rx="3.22709" fill="#FFECC9"/>
<rect x="276.946" y="46.1453" width="6.45418" height="15.49" rx="3.22709" fill="#FFECC9"/>
<rect x="276.946" y="69.3797" width="6.45418" height="15.49" rx="3.22709" fill="#FFECC9"/>
<rect x="276.946" y="92.6141" width="6.45418" height="15.49" rx="3.22709" fill="#FFECC9"/>
<rect x="276.946" y="115.848" width="6.45418" height="15.49" rx="3.22709" fill="#FFECC9"/>
<rect x="276.946" y="139.083" width="6.45418" height="15.49" rx="3.22709" fill="#FFECC9"/>
<rect x="291.146" y="22.911" width="6.45418" height="15.49" rx="3.22709" fill="#FFECC9"/>
<rect x="291.146" y="46.1453" width="6.45418" height="15.49" rx="3.22709" fill="#FFECC9"/>
<rect x="291.146" y="69.3797" width="6.45418" height="15.49" rx="3.22709" fill="#FFECC9"/>
<rect x="291.146" y="92.6141" width="6.45418" height="15.49" rx="3.22709" fill="#FFECC9"/>
<rect x="291.146" y="115.848" width="6.45418" height="15.49" rx="3.22709" fill="#FFECC9"/>
<rect x="291.146" y="139.083" width="6.45418" height="15.49" rx="3.22709" fill="#FFECC9"/>
<path d="M56.4485 86.3065C56.4485 81.8882 60.0302 78.3065 64.4485 78.3065H100.082C104.5 78.3065 108.082 81.8882 108.082 86.3065V240.697C108.082 245.115 104.5 248.697 100.082 248.697H64.4485C60.0302 248.697 56.4485 245.115 56.4485 240.697V86.3065Z" fill="#FAD693"/>
<rect x="64.1946" y="91.2166" width="6.45418" height="15.49" rx="3.22709" fill="#FCECCE"/>
<rect x="64.1946" y="114.451" width="6.45418" height="15.49" rx="3.22709" fill="#FCECCE"/>
<rect x="64.1946" y="137.685" width="6.45418" height="15.49" rx="3.22709" fill="#FCECCE"/>
<rect x="64.1946" y="160.92" width="6.45418" height="15.49" rx="3.22709" fill="#FCECCE"/>
<rect x="64.1946" y="184.154" width="6.45418" height="15.49" rx="3.22709" fill="#FCECCE"/>
<rect x="64.1946" y="207.389" width="6.45418" height="15.49" rx="3.22709" fill="#FCECCE"/>
<rect x="78.3938" y="91.2166" width="6.45418" height="15.49" rx="3.22709" fill="#FCECCE"/>
<rect x="78.3938" y="114.451" width="6.45418" height="15.49" rx="3.22709" fill="#FCECCE"/>
<rect x="78.3938" y="137.685" width="6.45418" height="15.49" rx="3.22709" fill="#FCECCE"/>
<rect x="78.3938" y="160.92" width="6.45418" height="15.49" rx="3.22709" fill="#FCECCE"/>
<rect x="78.3938" y="184.154" width="6.45418" height="15.49" rx="3.22709" fill="#FCECCE"/>
<rect x="78.3938" y="207.389" width="6.45418" height="15.49" rx="3.22709" fill="#FCECCE"/>
<rect x="92.593" y="91.2166" width="6.45418" height="15.49" rx="3.22709" fill="#FCECCE"/>
<rect x="92.593" y="114.451" width="6.45418" height="15.49" rx="3.22709" fill="#FCECCE"/>
<rect x="92.593" y="137.685" width="6.45418" height="15.49" rx="3.22709" fill="#FCECCE"/>
<rect x="92.593" y="160.92" width="6.45418" height="15.49" rx="3.22709" fill="#FCECCE"/>
<rect x="92.593" y="184.154" width="6.45418" height="15.49" rx="3.22709" fill="#FCECCE"/>
<rect x="92.593" y="207.389" width="6.45418" height="15.49" rx="3.22709" fill="#FCECCE"/>
<path d="M226.83 29.9276C227.189 26.3247 232.441 26.3247 232.8 29.9276L254.426 246.722C255.071 253.197 249.987 258.814 243.48 258.814H216.15C209.643 258.814 204.559 253.197 205.204 246.722L226.83 29.9276Z" fill="#FAD693"/>
<rect x="227.998" y="61.0012" width="3.87251" height="136.829" rx="1.93625" fill="#FFEDCB"/>
<path d="M0.649536 24.0011C0.649536 19.5828 4.23126 16.0011 8.64954 16.0011H44.283C48.7013 16.0011 52.283 19.5828 52.283 24.0011V178.392C52.283 182.81 48.7013 186.392 44.283 186.392H8.64954C4.23126 186.392 0.649536 182.81 0.649536 178.392V24.0011Z" fill="#FAD693"/>
<rect x="8.39587" y="28.912" width="6.45418" height="15.49" rx="3.22709" fill="#FCECCE"/>
<rect x="8.39587" y="52.1464" width="6.45418" height="15.49" rx="3.22709" fill="#FCECCE"/>
<rect x="8.39587" y="75.3808" width="6.45418" height="15.49" rx="3.22709" fill="#FCECCE"/>
<rect x="8.39587" y="98.6151" width="6.45418" height="15.49" rx="3.22709" fill="#FCECCE"/>
<rect x="8.39587" y="121.85" width="6.45418" height="15.49" rx="3.22709" fill="#FCECCE"/>
<rect x="8.39587" y="145.084" width="6.45418" height="15.49" rx="3.22709" fill="#FFF4DF"/>
<rect x="22.5951" y="28.912" width="6.45418" height="15.49" rx="3.22709" fill="#FCECCE"/>
<rect x="22.5951" y="52.1464" width="6.45418" height="15.49" rx="3.22709" fill="#FCECCE"/>
<rect x="22.5951" y="75.3808" width="6.45418" height="15.49" rx="3.22709" fill="#FCECCE"/>
<rect x="22.5951" y="98.6151" width="6.45418" height="15.49" rx="3.22709" fill="#FCECCE"/>
<rect x="22.5951" y="121.85" width="6.45418" height="15.49" rx="3.22709" fill="#FCECCE"/>
<rect x="22.5951" y="145.084" width="6.45418" height="15.49" rx="3.22709" fill="#FFF4DF"/>
<rect x="36.7943" y="28.912" width="6.45418" height="15.49" rx="3.22709" fill="#FCECCE"/>
<rect x="36.7943" y="52.1464" width="6.45418" height="15.49" rx="3.22709" fill="#FCECCE"/>
<rect x="36.7943" y="75.3808" width="6.45418" height="15.49" rx="3.22709" fill="#FCECCE"/>
<rect x="36.7943" y="98.6151" width="6.45418" height="15.49" rx="3.22709" fill="#FCECCE"/>
<rect x="36.7943" y="121.85" width="6.45418" height="15.49" rx="3.22709" fill="#FCECCE"/>
<rect x="36.7943" y="145.084" width="6.45418" height="15.49" rx="3.22709" fill="#FFF4DF"/>
</svg>
