<svg width="392" height="812" viewBox="0 0 392 812" fill="none" xmlns="http://www.w3.org/2000/svg">
<path fill-rule="evenodd" clip-rule="evenodd" d="M375 0.21936H0.000213623V0.223379H0V332.948C7.12075e-05 332.949 0.000142415 332.949 0.000213623 332.949V811.219H375V0.21936ZM0.000213623 332.949C13.1255 368.263 31.1467 384.994 49.2447 401.796C61.393 413.075 73.5759 424.385 84.3356 441.37C100.666 467.149 109.646 501.577 118.211 534.418C132.517 589.268 145.669 639.693 189.985 638.008C249.603 635.741 259.182 574.016 265.08 536.01C266.191 528.85 267.172 522.532 268.332 517.612C275.058 489.076 289.782 474.368 305.309 458.858C313.04 451.135 320.97 443.214 328.211 433.288C344.236 411.322 341.778 382.356 339.247 352.538C337.2 328.423 335.106 303.749 342.704 281.769C351.217 257.138 360.716 253.808 374.448 248.993L374.687 248.909C374.829 248.86 374.758 248.81 374.687 248.759C374.615 248.709 374.542 248.658 374.687 248.607L375 0.223435L0.000213623 0.223379V332.949Z" fill="#FFEDCB"/>
</svg>
