<svg width="194" height="112" viewBox="0 0 194 112" fill="none" xmlns="http://www.w3.org/2000/svg">
<path d="M24.5557 63.1507C24.0957 63.1507 23.7157 63.0107 23.4157 62.7307C23.1357 62.4307 22.9957 62.0507 22.9957 61.5907V44.4307H16.9957C16.0357 44.4307 15.5557 44.0007 15.5557 43.1407C15.5557 42.7207 15.6757 42.4007 15.9157 42.1807C16.1757 41.9607 16.5357 41.8507 16.9957 41.8507H32.1157C32.5757 41.8507 32.9257 41.9607 33.1657 42.1807C33.4257 42.4007 33.5557 42.7207 33.5557 43.1407C33.5557 44.0007 33.0757 44.4307 32.1157 44.4307H26.1157V61.5907C26.1157 62.0507 25.9757 62.4307 25.6957 62.7307C25.4157 63.0107 25.0357 63.1507 24.5557 63.1507ZM43.6798 48.0007C47.1598 48.0007 48.8998 49.9707 48.8998 53.9107V61.7107C48.8998 62.1507 48.7598 62.5007 48.4798 62.7607C48.1998 63.0207 47.8298 63.1507 47.3698 63.1507C46.9098 63.1507 46.5398 63.0207 46.2598 62.7607C45.9998 62.5007 45.8698 62.1507 45.8698 61.7107V53.9407C45.8698 52.7407 45.6198 51.8607 45.1198 51.3007C44.6398 50.7407 43.8798 50.4607 42.8398 50.4607C41.6198 50.4607 40.6398 50.8407 39.8998 51.6007C39.1598 52.3607 38.7898 53.3807 38.7898 54.6607V61.7107C38.7898 62.1507 38.6498 62.5007 38.3698 62.7607C38.1098 63.0207 37.7498 63.1507 37.2898 63.1507C36.8298 63.1507 36.4598 63.0207 36.1798 62.7607C35.8998 62.5007 35.7598 62.1507 35.7598 61.7107V43.1407C35.7598 42.7007 35.8998 42.3507 36.1798 42.0907C36.4798 41.8307 36.8598 41.7007 37.3198 41.7007C37.7598 41.7007 38.1098 41.8307 38.3698 42.0907C38.6498 42.3307 38.7898 42.6607 38.7898 43.0807V50.5807C39.2898 49.7407 39.9598 49.1007 40.7998 48.6607C41.6398 48.2207 42.5998 48.0007 43.6798 48.0007ZM64.5049 59.3107C64.7849 59.3107 65.0149 59.4207 65.1949 59.6407C65.3749 59.8607 65.4649 60.1407 65.4649 60.4807C65.4649 61.0607 65.1049 61.5507 64.3849 61.9507C63.6849 62.3507 62.9149 62.6607 62.075 62.8807C61.2549 63.1007 60.465 63.2107 59.705 63.2107C57.385 63.2107 55.555 62.5407 54.215 61.2007C52.875 59.8407 52.205 57.9907 52.205 55.6507C52.205 54.1507 52.495 52.8207 53.075 51.6607C53.675 50.5007 54.505 49.6007 55.565 48.9607C56.6449 48.3207 57.8649 48.0007 59.225 48.0007C61.1849 48.0007 62.7349 48.6307 63.875 49.8907C65.015 51.1507 65.585 52.8507 65.585 54.9907C65.585 55.7907 65.225 56.1907 64.5049 56.1907H55.235C55.435 59.2907 56.925 60.8407 59.705 60.8407C60.445 60.8407 61.085 60.7407 61.6249 60.5407C62.1649 60.3407 62.7349 60.0807 63.3349 59.7607C63.3949 59.7207 63.5549 59.6407 63.8149 59.5207C64.0949 59.3807 64.3249 59.3107 64.5049 59.3107ZM59.285 50.2207C58.125 50.2207 57.195 50.5907 56.4949 51.3307C55.7949 52.0707 55.375 53.1107 55.235 54.4507H62.975C62.915 53.0907 62.565 52.0507 61.925 51.3307C61.3049 50.5907 60.4249 50.2207 59.285 50.2207ZM76.234 63.1507C75.634 63.1907 75.174 63.1007 74.854 62.8807C74.534 62.6607 74.374 62.3307 74.374 61.8907C74.374 61.1107 74.804 60.6907 75.664 60.6307L76.594 60.5707C77.534 60.5307 78.234 60.2507 78.694 59.7307C79.154 59.1907 79.384 58.3507 79.384 57.2107V43.2607C79.384 42.8007 79.524 42.4307 79.804 42.1507C80.104 41.8507 80.484 41.7007 80.944 41.7007C81.424 41.7007 81.804 41.8507 82.084 42.1507C82.364 42.4307 82.504 42.8007 82.504 43.2607V57.2107C82.504 59.0907 82.054 60.5207 81.154 61.5007C80.274 62.4607 78.944 62.9907 77.164 63.0907L76.234 63.1507ZM93.4186 63.2107C91.9786 63.2107 90.7086 62.9007 89.6086 62.2807C88.5286 61.6607 87.6886 60.7807 87.0886 59.6407C86.5086 58.4807 86.2186 57.1407 86.2186 55.6207C86.2186 54.0807 86.5086 52.7407 87.0886 51.6007C87.6886 50.4407 88.5286 49.5507 89.6086 48.9307C90.7086 48.3107 91.9786 48.0007 93.4186 48.0007C94.8586 48.0007 96.1186 48.3107 97.1986 48.9307C98.2986 49.5507 99.1386 50.4407 99.7186 51.6007C100.319 52.7407 100.619 54.0807 100.619 55.6207C100.619 57.1407 100.319 58.4807 99.7186 59.6407C99.1386 60.7807 98.2986 61.6607 97.1986 62.2807C96.1186 62.9007 94.8586 63.2107 93.4186 63.2107ZM93.4186 60.8107C94.7586 60.8107 95.7786 60.3707 96.4786 59.4907C97.1986 58.6107 97.5586 57.3207 97.5586 55.6207C97.5586 53.9407 97.1986 52.6607 96.4786 51.7807C95.7586 50.8807 94.7386 50.4307 93.4186 50.4307C92.0986 50.4307 91.0786 50.8807 90.3586 51.7807C89.6386 52.6607 89.2786 53.9407 89.2786 55.6207C89.2786 57.3207 89.6286 58.6107 90.3286 59.4907C91.0486 60.3707 92.0786 60.8107 93.4186 60.8107ZM115.332 48.0607C115.792 48.0607 116.152 48.1907 116.412 48.4507C116.692 48.7107 116.832 49.0707 116.832 49.5307V61.7407C116.832 62.1607 116.692 62.5007 116.412 62.7607C116.132 63.0207 115.762 63.1507 115.302 63.1507C114.882 63.1507 114.542 63.0307 114.282 62.7907C114.022 62.5307 113.892 62.1907 113.892 61.7707V60.6307C113.432 61.4707 112.792 62.1107 111.972 62.5507C111.172 62.9907 110.272 63.2107 109.272 63.2107C105.712 63.2107 103.932 61.2507 103.932 57.3307V49.5307C103.932 49.0707 104.062 48.7107 104.322 48.4507C104.602 48.1907 104.982 48.0607 105.462 48.0607C105.922 48.0607 106.282 48.1907 106.542 48.4507C106.822 48.7107 106.962 49.0707 106.962 49.5307V57.3007C106.962 58.4807 107.202 59.3507 107.682 59.9107C108.162 60.4707 108.902 60.7507 109.902 60.7507C111.082 60.7507 112.022 60.3707 112.722 59.6107C113.442 58.8507 113.802 57.8407 113.802 56.5807V49.5307C113.802 49.0907 113.942 48.7407 114.222 48.4807C114.502 48.2007 114.872 48.0607 115.332 48.0607ZM128.752 48.0607C129.712 48.0007 130.192 48.4107 130.192 49.2907C130.192 49.7307 130.082 50.0607 129.862 50.2807C129.642 50.5007 129.262 50.6307 128.722 50.6707L127.822 50.7607C126.562 50.8807 125.622 51.3207 125.002 52.0807C124.402 52.8407 124.102 53.7607 124.102 54.8407V61.7107C124.102 62.1907 123.962 62.5507 123.682 62.7907C123.402 63.0307 123.042 63.1507 122.602 63.1507C122.162 63.1507 121.792 63.0307 121.492 62.7907C121.212 62.5507 121.072 62.1907 121.072 61.7107V49.5007C121.072 49.0407 121.212 48.6907 121.492 48.4507C121.792 48.1907 122.162 48.0607 122.602 48.0607C123.002 48.0607 123.332 48.1907 123.592 48.4507C123.872 48.6907 124.012 49.0307 124.012 49.4707V50.9107C124.412 50.0307 124.992 49.3607 125.752 48.9007C126.512 48.4407 127.372 48.1707 128.332 48.0907L128.752 48.0607ZM139.949 48.0007C143.449 48.0007 145.199 49.9707 145.199 53.9107V61.7107C145.199 62.1707 145.059 62.5307 144.779 62.7907C144.519 63.0307 144.149 63.1507 143.669 63.1507C143.209 63.1507 142.839 63.0207 142.559 62.7607C142.299 62.5007 142.169 62.1507 142.169 61.7107V54.0607C142.169 52.8207 141.919 51.9107 141.419 51.3307C140.939 50.7507 140.179 50.4607 139.139 50.4607C137.919 50.4607 136.939 50.8407 136.199 51.6007C135.459 52.3607 135.089 53.3807 135.089 54.6607V61.7107C135.089 62.1507 134.949 62.5007 134.669 62.7607C134.409 63.0207 134.049 63.1507 133.589 63.1507C133.129 63.1507 132.759 63.0207 132.479 62.7607C132.199 62.5007 132.059 62.1507 132.059 61.7107V49.5007C132.059 49.0807 132.199 48.7407 132.479 48.4807C132.779 48.2007 133.149 48.0607 133.589 48.0607C134.029 48.0607 134.379 48.1907 134.639 48.4507C134.899 48.7107 135.029 49.0507 135.029 49.4707V50.7007C135.509 49.8207 136.179 49.1507 137.039 48.6907C137.899 48.2307 138.869 48.0007 139.949 48.0007ZM160.804 59.3107C161.084 59.3107 161.314 59.4207 161.494 59.6407C161.674 59.8607 161.764 60.1407 161.764 60.4807C161.764 61.0607 161.404 61.5507 160.684 61.9507C159.984 62.3507 159.214 62.6607 158.374 62.8807C157.554 63.1007 156.764 63.2107 156.004 63.2107C153.684 63.2107 151.854 62.5407 150.514 61.2007C149.174 59.8407 148.504 57.9907 148.504 55.6507C148.504 54.1507 148.794 52.8207 149.374 51.6607C149.974 50.5007 150.804 49.6007 151.864 48.9607C152.944 48.3207 154.164 48.0007 155.524 48.0007C157.484 48.0007 159.034 48.6307 160.174 49.8907C161.314 51.1507 161.884 52.8507 161.884 54.9907C161.884 55.7907 161.524 56.1907 160.804 56.1907H151.534C151.734 59.2907 153.224 60.8407 156.004 60.8407C156.744 60.8407 157.384 60.7407 157.924 60.5407C158.464 60.3407 159.034 60.0807 159.634 59.7607C159.694 59.7207 159.854 59.6407 160.114 59.5207C160.394 59.3807 160.624 59.3107 160.804 59.3107ZM155.584 50.2207C154.424 50.2207 153.494 50.5907 152.794 51.3307C152.094 52.0707 151.674 53.1107 151.534 54.4507H159.274C159.214 53.0907 158.864 52.0507 158.224 51.3307C157.604 50.5907 156.724 50.2207 155.584 50.2207ZM175.428 48.9607C175.548 48.6607 175.718 48.4407 175.938 48.3007C176.178 48.1607 176.428 48.0907 176.688 48.0907C177.068 48.0907 177.398 48.2207 177.678 48.4807C177.978 48.7407 178.128 49.0507 178.128 49.4107C178.128 49.6107 178.088 49.8007 178.008 49.9807L169.668 67.6807C169.548 67.9607 169.368 68.1707 169.128 68.3107C168.908 68.4707 168.668 68.5507 168.408 68.5507C168.048 68.5507 167.718 68.4307 167.418 68.1907C167.138 67.9507 166.998 67.6507 166.998 67.2907C166.998 67.1307 167.048 66.9307 167.148 66.6907L169.218 62.2807L163.428 49.9807C163.348 49.8207 163.308 49.6407 163.308 49.4407C163.308 49.0607 163.468 48.7407 163.788 48.4807C164.108 48.2207 164.468 48.0907 164.868 48.0907C165.468 48.0907 165.898 48.3707 166.158 48.9307L170.808 59.2507L175.428 48.9607ZM21.104 91.1107C22.324 91.4507 23.264 92.0607 23.924 92.9407C24.604 93.8207 24.944 94.9207 24.944 96.2407C24.944 98.0607 24.314 99.4807 23.054 100.501C21.814 101.501 20.074 102.001 17.834 102.001H10.184C9.70398 102.001 9.32398 101.871 9.04398 101.611C8.78398 101.331 8.65398 100.961 8.65398 100.501V82.3507C8.65398 81.8907 8.78398 81.5307 9.04398 81.2707C9.32398 80.9907 9.70398 80.8507 10.184 80.8507H17.504C19.684 80.8507 21.384 81.3407 22.604 82.3207C23.844 83.2807 24.464 84.6307 24.464 86.3707C24.464 87.4907 24.164 88.4607 23.564 89.2807C22.984 90.1007 22.164 90.7107 21.104 91.1107ZM11.684 90.0007H17.024C19.984 90.0007 21.464 88.8807 21.464 86.6407C21.464 85.5207 21.094 84.6907 20.354 84.1507C19.634 83.6107 18.524 83.3407 17.024 83.3407H11.684V90.0007ZM17.504 99.5107C19.044 99.5107 20.174 99.2307 20.894 98.6707C21.614 98.1107 21.974 97.2407 21.974 96.0607C21.974 94.8607 21.604 93.9707 20.864 93.3907C20.144 92.7907 19.024 92.4907 17.504 92.4907H11.684V99.5107H17.504ZM40.086 98.3107C40.366 98.3107 40.596 98.4207 40.776 98.6407C40.956 98.8607 41.046 99.1407 41.046 99.4807C41.046 100.061 40.686 100.551 39.966 100.951C39.266 101.351 38.496 101.661 37.656 101.881C36.836 102.101 36.046 102.211 35.286 102.211C32.966 102.211 31.136 101.541 29.796 100.201C28.456 98.8407 27.786 96.9907 27.786 94.6507C27.786 93.1507 28.076 91.8207 28.656 90.6607C29.256 89.5007 30.086 88.6007 31.146 87.9607C32.226 87.3207 33.446 87.0007 34.806 87.0007C36.766 87.0007 38.316 87.6307 39.456 88.8907C40.596 90.1507 41.166 91.8507 41.166 93.9907C41.166 94.7907 40.806 95.1907 40.086 95.1907H30.816C31.016 98.2907 32.506 99.8407 35.286 99.8407C36.026 99.8407 36.666 99.7407 37.206 99.5407C37.746 99.3407 38.316 99.0807 38.916 98.7607C38.976 98.7207 39.136 98.6407 39.396 98.5207C39.676 98.3807 39.906 98.3107 40.086 98.3107ZM34.866 89.2207C33.706 89.2207 32.776 89.5907 32.076 90.3307C31.376 91.0707 30.956 92.1107 30.816 93.4507H38.556C38.496 92.0907 38.146 91.0507 37.506 90.3307C36.886 89.5907 36.006 89.2207 34.866 89.2207ZM56.6249 87.0607C57.0849 87.0607 57.4449 87.2007 57.7049 87.4807C57.9849 87.7407 58.1249 88.0907 58.1249 88.5307V100.831C58.1249 103.071 57.5249 104.761 56.3249 105.901C55.1449 107.041 53.3949 107.611 51.0749 107.611C48.9149 107.611 47.1149 107.201 45.6749 106.381C44.9349 105.961 44.5649 105.461 44.5649 104.881C44.5649 104.541 44.6549 104.261 44.8349 104.041C45.0349 103.821 45.2749 103.711 45.5549 103.711C45.8149 103.711 46.2249 103.861 46.7849 104.161C47.5049 104.501 48.1749 104.761 48.7949 104.941C49.4149 105.141 50.1549 105.241 51.0149 105.241C53.7749 105.241 55.1549 103.851 55.1549 101.071V98.7607C54.7349 99.6407 54.0949 100.331 53.2349 100.831C52.3749 101.311 51.3749 101.551 50.2349 101.551C48.9549 101.551 47.8149 101.251 46.8149 100.651C45.8149 100.051 45.0349 99.2007 44.4749 98.1007C43.9349 97.0007 43.6649 95.7307 43.6649 94.2907C43.6649 92.8507 43.9449 91.5807 44.5049 90.4807C45.0649 89.3807 45.8349 88.5307 46.8149 87.9307C47.8149 87.3107 48.9549 87.0007 50.2349 87.0007C51.3549 87.0007 52.3349 87.2407 53.1749 87.7207C54.0349 88.2007 54.6849 88.8807 55.1249 89.7607V88.5007C55.1249 88.0607 55.2549 87.7107 55.5149 87.4507C55.7949 87.1907 56.1649 87.0607 56.6249 87.0607ZM50.9549 99.1507C52.2549 99.1507 53.2749 98.7207 54.0149 97.8607C54.7549 97.0007 55.1249 95.8107 55.1249 94.2907C55.1249 92.7907 54.7549 91.6107 54.0149 90.7507C53.2949 89.8707 52.2749 89.4307 50.9549 89.4307C49.6349 89.4307 48.5949 89.8607 47.8349 90.7207C47.0949 91.5807 46.7249 92.7707 46.7249 94.2907C46.7249 95.8107 47.1049 97.0007 47.8649 97.8607C48.6249 98.7207 49.6549 99.1507 50.9549 99.1507ZM63.8767 102.151C63.4367 102.151 63.0667 102.031 62.7667 101.791C62.4867 101.551 62.3467 101.191 62.3467 100.711V88.5307C62.3467 88.0507 62.4867 87.6907 62.7667 87.4507C63.0667 87.1907 63.4367 87.0607 63.8767 87.0607C64.3167 87.0607 64.6767 87.1907 64.9567 87.4507C65.2367 87.6907 65.3767 88.0507 65.3767 88.5307V100.711C65.3767 101.191 65.2367 101.551 64.9567 101.791C64.6767 102.031 64.3167 102.151 63.8767 102.151ZM63.8767 84.1207C63.2967 84.1207 62.8367 83.9607 62.4967 83.6407C62.1567 83.3207 61.9867 82.9007 61.9867 82.3807C61.9867 81.8607 62.1567 81.4507 62.4967 81.1507C62.8367 80.8307 63.2967 80.6707 63.8767 80.6707C64.4367 80.6707 64.8867 80.8307 65.2267 81.1507C65.5867 81.4507 65.7667 81.8607 65.7667 82.3807C65.7667 82.9007 65.5967 83.3207 65.2567 83.6407C64.9167 83.9607 64.4567 84.1207 63.8767 84.1207ZM77.5023 87.0007C81.0023 87.0007 82.7523 88.9707 82.7523 92.9107V100.711C82.7523 101.171 82.6123 101.531 82.3323 101.791C82.0723 102.031 81.7023 102.151 81.2223 102.151C80.7623 102.151 80.3923 102.021 80.1123 101.761C79.8523 101.501 79.7223 101.151 79.7223 100.711V93.0607C79.7223 91.8207 79.4723 90.9107 78.9723 90.3307C78.4923 89.7507 77.7323 89.4607 76.6923 89.4607C75.4723 89.4607 74.4923 89.8407 73.7523 90.6007C73.0123 91.3607 72.6423 92.3807 72.6423 93.6607V100.711C72.6423 101.151 72.5023 101.501 72.2223 101.761C71.9623 102.021 71.6023 102.151 71.1423 102.151C70.6823 102.151 70.3123 102.021 70.0323 101.761C69.7523 101.501 69.6123 101.151 69.6123 100.711V88.5007C69.6123 88.0807 69.7523 87.7407 70.0323 87.4807C70.3323 87.2007 70.7023 87.0607 71.1423 87.0607C71.5823 87.0607 71.9323 87.1907 72.1923 87.4507C72.4523 87.7107 72.5823 88.0507 72.5823 88.4707V89.7007C73.0623 88.8207 73.7323 88.1507 74.5923 87.6907C75.4523 87.2307 76.4223 87.0007 77.5023 87.0007ZM91.9975 102.211C89.9575 102.211 88.2875 101.791 86.9875 100.951C86.6275 100.731 86.3675 100.501 86.2075 100.261C86.0675 100.021 85.9975 99.7507 85.9975 99.4507C85.9975 99.1307 86.0875 98.8607 86.2675 98.6407C86.4475 98.4207 86.6775 98.3107 86.9575 98.3107C87.2175 98.3107 87.6275 98.4707 88.1875 98.7907C88.7875 99.1107 89.3675 99.3707 89.9275 99.5707C90.5075 99.7707 91.2275 99.8707 92.0875 99.8707C93.0475 99.8707 93.7975 99.7007 94.3375 99.3607C94.8775 99.0207 95.1475 98.5407 95.1475 97.9207C95.1475 97.5207 95.0375 97.2007 94.8175 96.9607C94.6175 96.7207 94.2575 96.5107 93.7375 96.3307C93.2175 96.1307 92.4475 95.9207 91.4275 95.7007C89.6675 95.3207 88.3975 94.8107 87.6175 94.1707C86.8575 93.5107 86.4775 92.6207 86.4775 91.5007C86.4775 90.6407 86.7275 89.8707 87.2275 89.1907C87.7275 88.4907 88.4175 87.9507 89.2975 87.5707C90.1775 87.1907 91.1775 87.0007 92.2975 87.0007C93.0975 87.0007 93.8775 87.1107 94.6375 87.3307C95.3975 87.5307 96.0675 87.8307 96.6475 88.2307C97.3075 88.6707 97.6375 89.1807 97.6375 89.7607C97.6375 90.0807 97.5375 90.3507 97.3375 90.5707C97.1575 90.7907 96.9375 90.9007 96.6775 90.9007C96.4975 90.9007 96.3175 90.8607 96.1375 90.7807C95.9575 90.7007 95.7175 90.5707 95.4175 90.3907C94.8775 90.0707 94.3675 89.8207 93.8875 89.6407C93.4275 89.4607 92.8475 89.3707 92.1475 89.3707C91.3075 89.3707 90.6275 89.5507 90.1075 89.9107C89.6075 90.2707 89.3575 90.7607 89.3575 91.3807C89.3575 91.9407 89.5875 92.3807 90.0475 92.7007C90.5275 93.0007 91.4175 93.2907 92.7175 93.5707C94.0575 93.8507 95.1075 94.1707 95.8675 94.5307C96.6275 94.8907 97.1675 95.3407 97.4875 95.8807C97.8275 96.4007 97.9975 97.0707 97.9975 97.8907C97.9975 99.1907 97.4475 100.241 96.3475 101.041C95.2675 101.821 93.8175 102.211 91.9975 102.211ZM111.17 102.151C110.71 102.151 110.34 102.011 110.06 101.731C109.78 101.451 109.64 101.071 109.64 100.591V82.2607C109.64 81.8007 109.78 81.4307 110.06 81.1507C110.34 80.8507 110.71 80.7007 111.17 80.7007C111.65 80.7007 112.03 80.8407 112.31 81.1207C112.59 81.4007 112.73 81.7807 112.73 82.2607V100.591C112.73 101.071 112.59 101.451 112.31 101.731C112.05 102.011 111.67 102.151 111.17 102.151ZM125.168 87.0007C128.668 87.0007 130.418 88.9707 130.418 92.9107V100.711C130.418 101.171 130.278 101.531 129.998 101.791C129.738 102.031 129.368 102.151 128.888 102.151C128.428 102.151 128.058 102.021 127.778 101.761C127.518 101.501 127.388 101.151 127.388 100.711V93.0607C127.388 91.8207 127.138 90.9107 126.638 90.3307C126.158 89.7507 125.398 89.4607 124.358 89.4607C123.138 89.4607 122.158 89.8407 121.418 90.6007C120.678 91.3607 120.308 92.3807 120.308 93.6607V100.711C120.308 101.151 120.168 101.501 119.888 101.761C119.628 102.021 119.268 102.151 118.808 102.151C118.348 102.151 117.978 102.021 117.698 101.761C117.418 101.501 117.278 101.151 117.278 100.711V88.5007C117.278 88.0807 117.418 87.7407 117.698 87.4807C117.998 87.2007 118.368 87.0607 118.808 87.0607C119.248 87.0607 119.598 87.1907 119.858 87.4507C120.118 87.7107 120.248 88.0507 120.248 88.4707V89.7007C120.728 88.8207 121.398 88.1507 122.258 87.6907C123.118 87.2307 124.088 87.0007 125.168 87.0007ZM139.664 102.211C137.624 102.211 135.954 101.791 134.654 100.951C134.294 100.731 134.034 100.501 133.874 100.261C133.734 100.021 133.664 99.7507 133.664 99.4507C133.664 99.1307 133.754 98.8607 133.934 98.6407C134.114 98.4207 134.344 98.3107 134.624 98.3107C134.884 98.3107 135.294 98.4707 135.854 98.7907C136.454 99.1107 137.034 99.3707 137.594 99.5707C138.174 99.7707 138.894 99.8707 139.754 99.8707C140.714 99.8707 141.464 99.7007 142.004 99.3607C142.544 99.0207 142.814 98.5407 142.814 97.9207C142.814 97.5207 142.704 97.2007 142.484 96.9607C142.284 96.7207 141.924 96.5107 141.404 96.3307C140.884 96.1307 140.114 95.9207 139.094 95.7007C137.334 95.3207 136.064 94.8107 135.284 94.1707C134.524 93.5107 134.144 92.6207 134.144 91.5007C134.144 90.6407 134.394 89.8707 134.894 89.1907C135.394 88.4907 136.084 87.9507 136.964 87.5707C137.844 87.1907 138.844 87.0007 139.964 87.0007C140.764 87.0007 141.544 87.1107 142.304 87.3307C143.064 87.5307 143.734 87.8307 144.314 88.2307C144.974 88.6707 145.304 89.1807 145.304 89.7607C145.304 90.0807 145.204 90.3507 145.004 90.5707C144.824 90.7907 144.604 90.9007 144.344 90.9007C144.164 90.9007 143.984 90.8607 143.804 90.7807C143.624 90.7007 143.384 90.5707 143.084 90.3907C142.544 90.0707 142.034 89.8207 141.554 89.6407C141.094 89.4607 140.514 89.3707 139.814 89.3707C138.974 89.3707 138.294 89.5507 137.774 89.9107C137.274 90.2707 137.024 90.7607 137.024 91.3807C137.024 91.9407 137.254 92.3807 137.714 92.7007C138.194 93.0007 139.084 93.2907 140.384 93.5707C141.724 93.8507 142.774 94.1707 143.534 94.5307C144.294 94.8907 144.834 95.3407 145.154 95.8807C145.494 96.4007 145.664 97.0707 145.664 97.8907C145.664 99.1907 145.114 100.241 144.014 101.041C142.934 101.821 141.484 102.211 139.664 102.211ZM150.566 102.151C150.126 102.151 149.756 102.031 149.456 101.791C149.176 101.551 149.036 101.191 149.036 100.711V88.5307C149.036 88.0507 149.176 87.6907 149.456 87.4507C149.756 87.1907 150.126 87.0607 150.566 87.0607C151.006 87.0607 151.366 87.1907 151.646 87.4507C151.926 87.6907 152.066 88.0507 152.066 88.5307V100.711C152.066 101.191 151.926 101.551 151.646 101.791C151.366 102.031 151.006 102.151 150.566 102.151ZM150.566 84.1207C149.986 84.1207 149.526 83.9607 149.186 83.6407C148.846 83.3207 148.676 82.9007 148.676 82.3807C148.676 81.8607 148.846 81.4507 149.186 81.1507C149.526 80.8307 149.986 80.6707 150.566 80.6707C151.126 80.6707 151.576 80.8307 151.916 81.1507C152.276 81.4507 152.456 81.8607 152.456 82.3807C152.456 82.9007 152.286 83.3207 151.946 83.6407C151.606 83.9607 151.146 84.1207 150.566 84.1207ZM168.272 80.7007C168.732 80.7007 169.102 80.8307 169.382 81.0907C169.662 81.3507 169.802 81.7007 169.802 82.1407V100.681C169.802 101.141 169.662 101.501 169.382 101.761C169.122 102.021 168.762 102.151 168.302 102.151C167.842 102.151 167.472 102.021 167.192 101.761C166.932 101.501 166.802 101.141 166.802 100.681V99.4807C166.362 100.361 165.722 101.041 164.882 101.521C164.042 101.981 163.072 102.211 161.972 102.211C160.712 102.211 159.582 101.891 158.582 101.251C157.602 100.611 156.832 99.7107 156.272 98.5507C155.732 97.3907 155.462 96.0607 155.462 94.5607C155.462 93.0407 155.732 91.7107 156.272 90.5707C156.832 89.4307 157.602 88.5507 158.582 87.9307C159.562 87.3107 160.692 87.0007 161.972 87.0007C163.072 87.0007 164.032 87.2407 164.852 87.7207C165.692 88.1807 166.332 88.8407 166.772 89.7007V82.0807C166.772 81.6607 166.902 81.3307 167.162 81.0907C167.442 80.8307 167.812 80.7007 168.272 80.7007ZM162.692 99.8107C163.992 99.8107 165.002 99.3607 165.722 98.4607C166.442 97.5607 166.802 96.2807 166.802 94.6207C166.802 92.9607 166.442 91.6807 165.722 90.7807C165.022 89.8807 164.012 89.4307 162.692 89.4307C161.372 89.4307 160.342 89.8807 159.602 90.7807C158.882 91.6607 158.522 92.9207 158.522 94.5607C158.522 96.2007 158.892 97.4907 159.632 98.4307C160.372 99.3507 161.392 99.8107 162.692 99.8107ZM185.486 98.3107C185.766 98.3107 185.996 98.4207 186.176 98.6407C186.356 98.8607 186.446 99.1407 186.446 99.4807C186.446 100.061 186.086 100.551 185.366 100.951C184.666 101.351 183.896 101.661 183.056 101.881C182.236 102.101 181.446 102.211 180.686 102.211C178.366 102.211 176.536 101.541 175.196 100.201C173.856 98.8407 173.186 96.9907 173.186 94.6507C173.186 93.1507 173.476 91.8207 174.056 90.6607C174.656 89.5007 175.486 88.6007 176.546 87.9607C177.626 87.3207 178.846 87.0007 180.206 87.0007C182.166 87.0007 183.716 87.6307 184.856 88.8907C185.996 90.1507 186.566 91.8507 186.566 93.9907C186.566 94.7907 186.206 95.1907 185.486 95.1907H176.216C176.416 98.2907 177.906 99.8407 180.686 99.8407C181.426 99.8407 182.066 99.7407 182.606 99.5407C183.146 99.3407 183.716 99.0807 184.316 98.7607C184.376 98.7207 184.536 98.6407 184.796 98.5207C185.076 98.3807 185.306 98.3107 185.486 98.3107ZM180.266 89.2207C179.106 89.2207 178.176 89.5907 177.476 90.3307C176.776 91.0707 176.356 92.1107 176.216 93.4507H183.956C183.896 92.0907 183.546 91.0507 182.906 90.3307C182.286 89.5907 181.406 89.2207 180.266 89.2207Z" fill="#132D84"/>
<path d="M56.5266 10.6607L55.6666 15.0807H57.4066C57.62 15.0807 57.7933 15.1541 57.9266 15.3007C58.06 15.4341 58.1266 15.6007 58.1266 15.8007C58.1266 15.9874 58.06 16.1474 57.9266 16.2807C57.7933 16.4007 57.62 16.4607 57.4066 16.4607H55.3866L54.7866 19.5607C54.76 19.7207 54.68 19.8541 54.5466 19.9607C54.4266 20.0541 54.28 20.1007 54.1066 20.1007C53.8933 20.1007 53.7133 20.0341 53.5666 19.9007C53.4333 19.7674 53.3666 19.5941 53.3666 19.3807C53.3666 19.3007 53.3733 19.2341 53.3866 19.1807L53.9266 16.4607H51.0266L50.4066 19.5607C50.38 19.7207 50.3 19.8541 50.1666 19.9607C50.0466 20.0541 49.9 20.1007 49.7266 20.1007C49.5133 20.1007 49.34 20.0341 49.2066 19.9007C49.0733 19.7674 49.0066 19.5941 49.0066 19.3807C49.0066 19.3007 49.0133 19.2341 49.0266 19.1807L49.5666 16.4607H48.4466C48.2333 16.4607 48.06 16.3941 47.9266 16.2607C47.7933 16.1141 47.7266 15.9407 47.7266 15.7407C47.7266 15.5541 47.7933 15.4007 47.9266 15.2807C48.06 15.1474 48.2333 15.0807 48.4466 15.0807H49.8266L50.6866 10.6607H48.8466C48.6333 10.6607 48.46 10.5941 48.3266 10.4607C48.1933 10.3141 48.1266 10.1407 48.1266 9.94073C48.1266 9.75407 48.1933 9.60073 48.3266 9.48073C48.46 9.3474 48.6333 9.28073 48.8466 9.28073H50.9666L51.5466 6.28073C51.5733 6.12073 51.6466 5.99407 51.7666 5.90073C51.9 5.79406 52.0533 5.74073 52.2266 5.74073C52.4533 5.74073 52.6333 5.8074 52.7666 5.94073C52.9 6.07407 52.9666 6.25407 52.9666 6.48073C52.9666 6.56073 52.96 6.62073 52.9466 6.66073L52.4266 9.28073H55.3266L55.9066 6.28073C55.9333 6.12073 56.0066 5.99407 56.1266 5.90073C56.26 5.79406 56.4133 5.74073 56.5866 5.74073C56.8 5.74073 56.9733 5.8074 57.1066 5.94073C57.2533 6.07407 57.3266 6.2474 57.3266 6.46073C57.3266 6.54073 57.32 6.6074 57.3066 6.66073L56.7866 9.28073H57.8066C58.02 9.28073 58.1933 9.35407 58.3266 9.50073C58.46 9.63406 58.5266 9.80073 58.5266 10.0007C58.5266 10.1874 58.46 10.3474 58.3266 10.4807C58.1933 10.6007 58.02 10.6607 57.8066 10.6607H56.5266ZM55.0466 10.6607H52.1666L51.2866 15.0807H54.1866L55.0466 10.6607ZM65.4188 20.1607C64.4055 20.1607 63.4388 20.0207 62.5188 19.7407C61.6122 19.4607 60.8855 19.0741 60.3388 18.5807C60.0855 18.3674 59.9588 18.0941 59.9588 17.7607C59.9588 17.5207 60.0255 17.3207 60.1588 17.1607C60.2922 16.9874 60.4522 16.9007 60.6388 16.9007C60.8255 16.9007 61.0522 16.9874 61.3188 17.1607C62.5055 18.0407 63.8588 18.4807 65.3788 18.4807C66.4455 18.4807 67.2655 18.2807 67.8388 17.8807C68.4122 17.4807 68.6988 16.9074 68.6988 16.1607C68.6988 15.5741 68.4322 15.1341 67.8988 14.8407C67.3655 14.5474 66.5122 14.2674 65.3388 14.0007C64.2188 13.7607 63.2988 13.4874 62.5788 13.1807C61.8588 12.8741 61.2922 12.4607 60.8788 11.9407C60.4788 11.4074 60.2788 10.7341 60.2788 9.92073C60.2788 9.1074 60.4988 8.3874 60.9388 7.76073C61.3922 7.12073 62.0188 6.6274 62.8188 6.28073C63.6188 5.92073 64.5322 5.74073 65.5588 5.74073C66.5055 5.74073 67.3788 5.87406 68.1788 6.14073C68.9788 6.4074 69.6588 6.80073 70.2188 7.32073C70.4855 7.5474 70.6188 7.82073 70.6188 8.14073C70.6188 8.3674 70.5455 8.5674 70.3988 8.74073C70.2655 8.91407 70.1055 9.00073 69.9188 9.00073C69.7455 9.00073 69.5255 8.91407 69.2588 8.74073C68.6455 8.27406 68.0655 7.94073 67.5188 7.74073C66.9855 7.5274 66.3388 7.42073 65.5788 7.42073C64.5522 7.42073 63.7522 7.63407 63.1788 8.06073C62.6055 8.47407 62.3188 9.05406 62.3188 9.80073C62.3188 10.4407 62.5722 10.9274 63.0788 11.2607C63.5855 11.5807 64.3988 11.8741 65.5188 12.1407C66.6922 12.4074 67.6388 12.6874 68.3588 12.9807C69.0922 13.2607 69.6722 13.6541 70.0988 14.1607C70.5388 14.6541 70.7588 15.2941 70.7588 16.0807C70.7588 16.8807 70.5322 17.5941 70.0788 18.2207C69.6388 18.8341 69.0122 19.3141 68.1988 19.6607C67.3988 19.9941 66.4722 20.1607 65.4188 20.1607ZM77.7402 18.5607C78.0336 18.5874 78.2402 18.6674 78.3602 18.8007C78.4936 18.9207 78.5602 19.0941 78.5602 19.3207C78.5602 19.5874 78.4536 19.7941 78.2402 19.9407C78.0402 20.0741 77.7402 20.1274 77.3402 20.1007L76.8002 20.0607C75.7202 19.9807 74.9136 19.6541 74.3802 19.0807C73.8469 18.4941 73.5802 17.6341 73.5802 16.5007V11.8007H72.3802C71.7936 11.8007 71.5002 11.5407 71.5002 11.0207C71.5002 10.7807 71.5736 10.5941 71.7202 10.4607C71.8802 10.3141 72.1002 10.2407 72.3802 10.2407H73.5802V8.18073C73.5802 7.87407 73.6669 7.63407 73.8402 7.46073C74.0269 7.2874 74.2736 7.20073 74.5802 7.20073C74.8869 7.20073 75.1336 7.2874 75.3202 7.46073C75.5069 7.63407 75.6002 7.87407 75.6002 8.18073V10.2407H77.5802C77.8602 10.2407 78.0736 10.3141 78.2202 10.4607C78.3802 10.5941 78.4602 10.7807 78.4602 11.0207C78.4602 11.2741 78.3802 11.4674 78.2202 11.6007C78.0736 11.7341 77.8602 11.8007 77.5802 11.8007H75.6002V16.6407C75.6002 17.2674 75.7269 17.7274 75.9802 18.0207C76.2469 18.3141 76.6469 18.4807 77.1802 18.5207L77.7402 18.5607ZM84.111 10.0007C85.4044 10.0007 86.3644 10.3274 86.991 10.9807C87.631 11.6341 87.951 12.6274 87.951 13.9607V19.1407C87.951 19.4474 87.8644 19.6874 87.691 19.8607C87.5177 20.0207 87.2777 20.1007 86.971 20.1007C86.6777 20.1007 86.4444 20.0141 86.271 19.8407C86.0977 19.6674 86.011 19.4341 86.011 19.1407V18.4007C85.7577 18.9607 85.3777 19.3941 84.871 19.7007C84.3777 19.9941 83.7977 20.1407 83.131 20.1407C82.491 20.1407 81.9044 20.0141 81.371 19.7607C80.8377 19.4941 80.4177 19.1274 80.111 18.6607C79.8177 18.1941 79.671 17.6741 79.671 17.1007C79.671 16.3941 79.851 15.8407 80.211 15.4407C80.5844 15.0274 81.191 14.7341 82.031 14.5607C82.8844 14.3874 84.051 14.3007 85.531 14.3007H85.991V13.7207C85.991 12.9741 85.8377 12.4341 85.531 12.1007C85.2244 11.7674 84.731 11.6007 84.051 11.6007C83.5844 11.6007 83.1444 11.6607 82.731 11.7807C82.3177 11.9007 81.8644 12.0741 81.371 12.3007C81.011 12.5007 80.7577 12.6007 80.611 12.6007C80.411 12.6007 80.2444 12.5274 80.111 12.3807C79.991 12.2341 79.931 12.0474 79.931 11.8207C79.931 11.6207 79.9844 11.4474 80.091 11.3007C80.211 11.1407 80.3977 10.9874 80.651 10.8407C81.1177 10.5874 81.6644 10.3874 82.291 10.2407C82.9177 10.0807 83.5244 10.0007 84.111 10.0007ZM83.491 18.6407C84.2244 18.6407 84.8244 18.3941 85.291 17.9007C85.7577 17.3941 85.991 16.7474 85.991 15.9607V15.4407H85.631C84.591 15.4407 83.791 15.4874 83.231 15.5807C82.671 15.6741 82.271 15.8341 82.031 16.0607C81.791 16.2741 81.671 16.5874 81.671 17.0007C81.671 17.4807 81.8444 17.8741 82.191 18.1807C82.5377 18.4874 82.971 18.6407 83.491 18.6407ZM97.6541 10.6407C97.7341 10.4407 97.8475 10.2941 97.9941 10.2007C98.1541 10.1074 98.3208 10.0607 98.4941 10.0607C98.7475 10.0607 98.9675 10.1474 99.1541 10.3207C99.3541 10.4941 99.4541 10.7007 99.4541 10.9407C99.4541 11.0741 99.4275 11.2007 99.3741 11.3207L93.8141 23.1207C93.7341 23.3074 93.6141 23.4474 93.4541 23.5407C93.3075 23.6474 93.1475 23.7007 92.9741 23.7007C92.7341 23.7007 92.5141 23.6207 92.3141 23.4607C92.1275 23.3007 92.0341 23.1007 92.0341 22.8607C92.0341 22.7541 92.0675 22.6207 92.1341 22.4607L93.5141 19.5207L89.6541 11.3207C89.6008 11.2141 89.5741 11.0941 89.5741 10.9607C89.5741 10.7074 89.6808 10.4941 89.8941 10.3207C90.1075 10.1474 90.3475 10.0607 90.6141 10.0607C91.0141 10.0607 91.3008 10.2474 91.4741 10.6207L94.5741 17.5007L97.6541 10.6407ZM104.349 20.1407C102.989 20.1407 101.875 19.8607 101.009 19.3007C100.769 19.1541 100.595 19.0007 100.489 18.8407C100.395 18.6807 100.349 18.5007 100.349 18.3007C100.349 18.0874 100.409 17.9074 100.529 17.7607C100.649 17.6141 100.802 17.5407 100.989 17.5407C101.162 17.5407 101.435 17.6474 101.809 17.8607C102.209 18.0741 102.595 18.2474 102.969 18.3807C103.355 18.5141 103.835 18.5807 104.409 18.5807C105.049 18.5807 105.549 18.4674 105.909 18.2407C106.269 18.0141 106.449 17.6941 106.449 17.2807C106.449 17.0141 106.375 16.8007 106.229 16.6407C106.095 16.4807 105.855 16.3407 105.509 16.2207C105.162 16.0874 104.649 15.9474 103.969 15.8007C102.795 15.5474 101.949 15.2074 101.429 14.7807C100.922 14.3407 100.669 13.7474 100.669 13.0007C100.669 12.4274 100.835 11.9141 101.169 11.4607C101.502 10.9941 101.962 10.6341 102.549 10.3807C103.135 10.1274 103.802 10.0007 104.549 10.0007C105.082 10.0007 105.602 10.0741 106.109 10.2207C106.615 10.3541 107.062 10.5541 107.449 10.8207C107.889 11.1141 108.109 11.4541 108.109 11.8407C108.109 12.0541 108.042 12.2341 107.909 12.3807C107.789 12.5274 107.642 12.6007 107.469 12.6007C107.349 12.6007 107.229 12.5741 107.109 12.5207C106.989 12.4674 106.829 12.3807 106.629 12.2607C106.269 12.0474 105.929 11.8807 105.609 11.7607C105.302 11.6407 104.915 11.5807 104.449 11.5807C103.889 11.5807 103.435 11.7007 103.089 11.9407C102.755 12.1807 102.589 12.5074 102.589 12.9207C102.589 13.2941 102.742 13.5874 103.049 13.8007C103.369 14.0007 103.962 14.1941 104.829 14.3807C105.722 14.5674 106.422 14.7807 106.929 15.0207C107.435 15.2607 107.795 15.5607 108.009 15.9207C108.235 16.2674 108.349 16.7141 108.349 17.2607C108.349 18.1274 107.982 18.8274 107.249 19.3607C106.529 19.8807 105.562 20.1407 104.349 20.1407ZM114.697 10.0007C115.99 10.0007 116.95 10.3274 117.577 10.9807C118.217 11.6341 118.537 12.6274 118.537 13.9607V19.1407C118.537 19.4474 118.45 19.6874 118.277 19.8607C118.104 20.0207 117.864 20.1007 117.557 20.1007C117.264 20.1007 117.03 20.0141 116.857 19.8407C116.684 19.6674 116.597 19.4341 116.597 19.1407V18.4007C116.344 18.9607 115.964 19.3941 115.457 19.7007C114.964 19.9941 114.384 20.1407 113.717 20.1407C113.077 20.1407 112.49 20.0141 111.957 19.7607C111.424 19.4941 111.004 19.1274 110.697 18.6607C110.404 18.1941 110.257 17.6741 110.257 17.1007C110.257 16.3941 110.437 15.8407 110.797 15.4407C111.17 15.0274 111.777 14.7341 112.617 14.5607C113.47 14.3874 114.637 14.3007 116.117 14.3007H116.577V13.7207C116.577 12.9741 116.424 12.4341 116.117 12.1007C115.81 11.7674 115.317 11.6007 114.637 11.6007C114.17 11.6007 113.73 11.6607 113.317 11.7807C112.904 11.9007 112.45 12.0741 111.957 12.3007C111.597 12.5007 111.344 12.6007 111.197 12.6007C110.997 12.6007 110.83 12.5274 110.697 12.3807C110.577 12.2341 110.517 12.0474 110.517 11.8207C110.517 11.6207 110.57 11.4474 110.677 11.3007C110.797 11.1407 110.984 10.9874 111.237 10.8407C111.704 10.5874 112.25 10.3874 112.877 10.2407C113.504 10.0807 114.11 10.0007 114.697 10.0007ZM114.077 18.6407C114.81 18.6407 115.41 18.3941 115.877 17.9007C116.344 17.3941 116.577 16.7474 116.577 15.9607V15.4407H116.217C115.177 15.4407 114.377 15.4874 113.817 15.5807C113.257 15.6741 112.857 15.8341 112.617 16.0607C112.377 16.2741 112.257 16.5874 112.257 17.0007C112.257 17.4807 112.43 17.8741 112.777 18.1807C113.124 18.4874 113.557 18.6407 114.077 18.6407ZM124.7 20.1407C123.34 20.1407 122.227 19.8607 121.36 19.3007C121.12 19.1541 120.947 19.0007 120.84 18.8407C120.747 18.6807 120.7 18.5007 120.7 18.3007C120.7 18.0874 120.76 17.9074 120.88 17.7607C121 17.6141 121.153 17.5407 121.34 17.5407C121.513 17.5407 121.787 17.6474 122.16 17.8607C122.56 18.0741 122.947 18.2474 123.32 18.3807C123.707 18.5141 124.187 18.5807 124.76 18.5807C125.4 18.5807 125.9 18.4674 126.26 18.2407C126.62 18.0141 126.8 17.6941 126.8 17.2807C126.8 17.0141 126.727 16.8007 126.58 16.6407C126.447 16.4807 126.207 16.3407 125.86 16.2207C125.513 16.0874 125 15.9474 124.32 15.8007C123.147 15.5474 122.3 15.2074 121.78 14.7807C121.273 14.3407 121.02 13.7474 121.02 13.0007C121.02 12.4274 121.187 11.9141 121.52 11.4607C121.853 10.9941 122.313 10.6341 122.9 10.3807C123.487 10.1274 124.153 10.0007 124.9 10.0007C125.433 10.0007 125.953 10.0741 126.46 10.2207C126.967 10.3541 127.413 10.5541 127.8 10.8207C128.24 11.1141 128.46 11.4541 128.46 11.8407C128.46 12.0541 128.393 12.2341 128.26 12.3807C128.14 12.5274 127.993 12.6007 127.82 12.6007C127.7 12.6007 127.58 12.5741 127.46 12.5207C127.34 12.4674 127.18 12.3807 126.98 12.2607C126.62 12.0474 126.28 11.8807 125.96 11.7607C125.653 11.6407 125.267 11.5807 124.8 11.5807C124.24 11.5807 123.787 11.7007 123.44 11.9407C123.107 12.1807 122.94 12.5074 122.94 12.9207C122.94 13.2941 123.093 13.5874 123.4 13.8007C123.72 14.0007 124.313 14.1941 125.18 14.3807C126.073 14.5674 126.773 14.7807 127.28 15.0207C127.787 15.2607 128.147 15.5607 128.36 15.9207C128.587 16.2674 128.7 16.7141 128.7 17.2607C128.7 18.1274 128.333 18.8274 127.6 19.3607C126.88 19.8807 125.913 20.1407 124.7 20.1407ZM135.549 7.44073C134.882 7.49407 134.389 7.7074 134.069 8.08073C133.749 8.44073 133.589 8.97407 133.589 9.68073V10.2407H135.569C135.849 10.2407 136.062 10.3141 136.209 10.4607C136.369 10.5941 136.449 10.7807 136.449 11.0207C136.449 11.2607 136.369 11.4541 136.209 11.6007C136.062 11.7341 135.849 11.8007 135.569 11.8007H133.589V19.1207C133.589 19.4407 133.489 19.6874 133.289 19.8607C133.102 20.0207 132.862 20.1007 132.569 20.1007C132.275 20.1007 132.035 20.0207 131.849 19.8607C131.662 19.6874 131.569 19.4407 131.569 19.1207V11.8007H130.369C130.089 11.8007 129.869 11.7341 129.709 11.6007C129.562 11.4541 129.489 11.2607 129.489 11.0207C129.489 10.7807 129.562 10.5941 129.709 10.4607C129.869 10.3141 130.089 10.2407 130.369 10.2407H131.569V9.98073C131.569 8.75406 131.882 7.79406 132.509 7.10073C133.135 6.39407 134.022 6.00073 135.169 5.92073L135.689 5.88073C136.115 5.85407 136.422 5.90073 136.609 6.02073C136.809 6.14073 136.909 6.33406 136.909 6.60073C136.909 7.0674 136.629 7.33406 136.069 7.40073L135.549 7.44073ZM145.327 17.5407C145.513 17.5407 145.667 17.6141 145.787 17.7607C145.907 17.9074 145.967 18.0941 145.967 18.3207C145.967 18.7074 145.727 19.0341 145.247 19.3007C144.78 19.5674 144.267 19.7741 143.707 19.9207C143.16 20.0674 142.633 20.1407 142.127 20.1407C140.58 20.1407 139.36 19.6941 138.467 18.8007C137.573 17.8941 137.127 16.6607 137.127 15.1007C137.127 14.1007 137.32 13.2141 137.707 12.4407C138.107 11.6674 138.66 11.0674 139.367 10.6407C140.087 10.2141 140.9 10.0007 141.807 10.0007C143.113 10.0007 144.147 10.4207 144.907 11.2607C145.667 12.1007 146.047 13.2341 146.047 14.6607C146.047 15.1941 145.807 15.4607 145.327 15.4607H139.147C139.28 17.5274 140.273 18.5607 142.127 18.5607C142.62 18.5607 143.047 18.4941 143.407 18.3607C143.767 18.2274 144.147 18.0541 144.547 17.8407C144.587 17.8141 144.693 17.7607 144.867 17.6807C145.053 17.5874 145.207 17.5407 145.327 17.5407ZM141.847 11.4807C141.073 11.4807 140.453 11.7274 139.987 12.2207C139.52 12.7141 139.24 13.4074 139.147 14.3007H144.307C144.267 13.3941 144.033 12.7007 143.607 12.2207C143.193 11.7274 142.607 11.4807 141.847 11.4807Z" fill="#E8990D"/>
</svg>
