<svg width="151" height="62" viewBox="0 0 151 62" fill="none" xmlns="http://www.w3.org/2000/svg">
<path d="M4.41707 20.144C3.95307 20.144 3.57707 20.008 3.28907 19.736C3.01707 19.448 2.88107 19.064 2.88107 18.584V4.544C2.88107 4.08 3.00907 3.72 3.26507 3.464C3.53707 3.208 3.90507 3.08 4.36907 3.08H10.2731C12.0811 3.08 13.4891 3.536 14.4971 4.448C15.5051 5.344 16.0091 6.608 16.0091 8.24C16.0091 9.872 15.5051 11.144 14.4971 12.056C13.4891 12.968 12.0811 13.424 10.2731 13.424H5.97707V18.584C5.97707 19.064 5.83307 19.448 5.54507 19.736C5.27307 20.008 4.89707 20.144 4.41707 20.144ZM9.88907 11.048C12.0171 11.048 13.0811 10.12 13.0811 8.264C13.0811 6.408 12.0171 5.48 9.88907 5.48H5.97707V11.048H9.88907ZM27.3269 16.784C27.5989 16.784 27.8149 16.888 27.9749 17.096C28.1509 17.304 28.2389 17.584 28.2389 17.936C28.2389 18.432 27.9429 18.848 27.3509 19.184C26.8069 19.488 26.1909 19.736 25.5029 19.928C24.8149 20.104 24.1589 20.192 23.5349 20.192C21.6469 20.192 20.1509 19.648 19.0469 18.56C17.9429 17.472 17.3909 15.984 17.3909 14.096C17.3909 12.896 17.6309 11.832 18.1109 10.904C18.5909 9.976 19.2629 9.256 20.1269 8.744C21.0069 8.232 21.9989 7.976 23.1029 7.976C24.1589 7.976 25.0789 8.208 25.8629 8.672C26.6469 9.136 27.2549 9.792 27.6869 10.64C28.1189 11.488 28.3349 12.488 28.3349 13.64C28.3349 14.328 28.0309 14.672 27.4229 14.672H20.3429C20.4389 15.776 20.7509 16.592 21.2789 17.12C21.8069 17.632 22.5749 17.888 23.5829 17.888C24.0949 17.888 24.5429 17.824 24.9269 17.696C25.3269 17.568 25.7749 17.392 26.2709 17.168C26.7509 16.912 27.1029 16.784 27.3269 16.784ZM23.1749 10.088C22.3589 10.088 21.7029 10.344 21.2069 10.856C20.7269 11.368 20.4389 12.104 20.3429 13.064H25.7669C25.7349 12.088 25.4949 11.352 25.0469 10.856C24.5989 10.344 23.9749 10.088 23.1749 10.088ZM35.8769 7.976C37.5089 7.976 38.7169 8.384 39.5009 9.2C40.3009 10 40.7009 11.224 40.7009 12.872V18.728C40.7009 19.16 40.5729 19.504 40.3169 19.76C40.0609 20 39.7089 20.12 39.2609 20.12C38.8449 20.12 38.5009 19.992 38.2289 19.736C37.9729 19.48 37.8449 19.144 37.8449 18.728V18.2C37.5729 18.824 37.1409 19.312 36.5489 19.664C35.9729 20.016 35.3009 20.192 34.5329 20.192C33.7489 20.192 33.0369 20.032 32.3969 19.712C31.7569 19.392 31.2529 18.952 30.8849 18.392C30.5169 17.832 30.3329 17.208 30.3329 16.52C30.3329 15.656 30.5489 14.976 30.9809 14.48C31.4289 13.984 32.1489 13.624 33.1409 13.4C34.1329 13.176 35.5009 13.064 37.2449 13.064H37.8449V12.512C37.8449 11.728 37.6769 11.16 37.3409 10.808C37.0049 10.44 36.4609 10.256 35.7089 10.256C35.2449 10.256 34.7729 10.328 34.2929 10.472C33.8129 10.6 33.2449 10.792 32.5889 11.048C32.1729 11.256 31.8689 11.36 31.6769 11.36C31.3889 11.36 31.1489 11.256 30.9569 11.048C30.7809 10.84 30.6929 10.568 30.6929 10.232C30.6929 9.96 30.7569 9.728 30.8849 9.536C31.0289 9.328 31.2609 9.136 31.5809 8.96C32.1409 8.656 32.8049 8.416 33.5729 8.24C34.3569 8.064 35.1249 7.976 35.8769 7.976ZM35.1329 18.032C35.9329 18.032 36.5809 17.768 37.0769 17.24C37.5889 16.696 37.8449 16 37.8449 15.152V14.648H37.4129C36.3409 14.648 35.5089 14.696 34.9169 14.792C34.3249 14.888 33.9009 15.056 33.6449 15.296C33.3889 15.536 33.2609 15.864 33.2609 16.28C33.2609 16.792 33.4369 17.216 33.7889 17.552C34.1569 17.872 34.6049 18.032 35.1329 18.032ZM48.9579 20.192C47.7899 20.192 46.7579 19.944 45.8619 19.448C44.9819 18.952 44.3019 18.248 43.8219 17.336C43.3419 16.424 43.1019 15.36 43.1019 14.144C43.1019 12.928 43.3499 11.856 43.8459 10.928C44.3579 9.984 45.0699 9.256 45.9819 8.744C46.8939 8.232 47.9419 7.976 49.1259 7.976C49.7499 7.976 50.3739 8.064 50.9979 8.24C51.6379 8.416 52.1979 8.656 52.6779 8.96C53.1899 9.296 53.4459 9.72 53.4459 10.232C53.4459 10.584 53.3579 10.872 53.1819 11.096C53.0219 11.304 52.8059 11.408 52.5339 11.408C52.3579 11.408 52.1739 11.368 51.9819 11.288C51.7899 11.208 51.5979 11.112 51.4059 11C51.0539 10.792 50.7179 10.632 50.3979 10.52C50.0779 10.392 49.7099 10.328 49.2939 10.328C48.3019 10.328 47.5339 10.656 46.9899 11.312C46.4619 11.952 46.1979 12.88 46.1979 14.096C46.1979 15.296 46.4619 16.224 46.9899 16.88C47.5339 17.52 48.3019 17.84 49.2939 17.84C49.6939 17.84 50.0459 17.784 50.3499 17.672C50.6699 17.544 51.0219 17.376 51.4059 17.168C51.6459 17.024 51.8539 16.92 52.0299 16.856C52.2059 16.776 52.3819 16.736 52.5579 16.736C52.8139 16.736 53.0299 16.848 53.2059 17.072C53.3819 17.296 53.4699 17.576 53.4699 17.912C53.4699 18.184 53.4059 18.424 53.2779 18.632C53.1659 18.824 52.9739 19 52.7019 19.16C52.2059 19.48 51.6299 19.736 50.9739 19.928C50.3179 20.104 49.6459 20.192 48.9579 20.192ZM64.7566 16.784C65.0286 16.784 65.2446 16.888 65.4046 17.096C65.5806 17.304 65.6686 17.584 65.6686 17.936C65.6686 18.432 65.3726 18.848 64.7806 19.184C64.2366 19.488 63.6206 19.736 62.9326 19.928C62.2446 20.104 61.5886 20.192 60.9646 20.192C59.0766 20.192 57.5806 19.648 56.4766 18.56C55.3726 17.472 54.8206 15.984 54.8206 14.096C54.8206 12.896 55.0606 11.832 55.5406 10.904C56.0206 9.976 56.6926 9.256 57.5566 8.744C58.4366 8.232 59.4286 7.976 60.5326 7.976C61.5886 7.976 62.5086 8.208 63.2926 8.672C64.0766 9.136 64.6846 9.792 65.1166 10.64C65.5486 11.488 65.7646 12.488 65.7646 13.64C65.7646 14.328 65.4606 14.672 64.8526 14.672H57.7726C57.8686 15.776 58.1806 16.592 58.7086 17.12C59.2366 17.632 60.0046 17.888 61.0126 17.888C61.5246 17.888 61.9726 17.824 62.3566 17.696C62.7566 17.568 63.2046 17.392 63.7006 17.168C64.1806 16.912 64.5326 16.784 64.7566 16.784ZM60.6046 10.088C59.7886 10.088 59.1326 10.344 58.6366 10.856C58.1566 11.368 57.8686 12.104 57.7726 13.064H63.1966C63.1646 12.088 62.9246 11.352 62.4766 10.856C62.0286 10.344 61.4046 10.088 60.6046 10.088ZM74.0763 5.312C73.3403 5.36 72.8043 5.584 72.4683 5.984C72.1323 6.384 71.9643 6.96 71.9643 7.712V8.264H74.0043C74.9003 8.264 75.3483 8.64 75.3483 9.392C75.3483 10.144 74.9003 10.52 74.0043 10.52H71.9643V18.704C71.9643 19.168 71.8203 19.52 71.5323 19.76C71.2603 20 70.9083 20.12 70.4763 20.12C70.0443 20.12 69.6843 20 69.3963 19.76C69.1083 19.52 68.9643 19.168 68.9643 18.704V10.52H67.7643C66.8683 10.52 66.4203 10.144 66.4203 9.392C66.4203 8.64 66.8683 8.264 67.7643 8.264H68.9643V8.096C68.9643 6.592 69.3563 5.416 70.1403 4.568C70.9403 3.704 72.0603 3.216 73.5003 3.104L74.1243 3.056C74.7643 3.008 75.2123 3.08 75.4683 3.272C75.7403 3.448 75.8763 3.728 75.8763 4.112C75.8763 4.8 75.4843 5.184 74.7003 5.264L74.0763 5.312ZM86.0139 8.024C86.4779 8.024 86.8459 8.152 87.1179 8.408C87.3899 8.664 87.5259 9.008 87.5259 9.44V18.752C87.5259 19.168 87.3819 19.504 87.0939 19.76C86.8219 20.016 86.4619 20.144 86.0139 20.144C85.5819 20.144 85.2379 20.024 84.9819 19.784C84.7259 19.544 84.5979 19.216 84.5979 18.8V18.2C84.2299 18.84 83.7339 19.336 83.1099 19.688C82.4859 20.024 81.7819 20.192 80.9979 20.192C78.1179 20.192 76.6779 18.576 76.6779 15.344V9.44C76.6779 9.008 76.8139 8.664 77.0859 8.408C77.3579 8.152 77.7179 8.024 78.1659 8.024C78.6299 8.024 78.9979 8.152 79.2699 8.408C79.5419 8.664 79.6779 9.008 79.6779 9.44V15.368C79.6779 16.2 79.8459 16.816 80.1819 17.216C80.5179 17.616 81.0459 17.816 81.7659 17.816C82.5979 17.816 83.2619 17.544 83.7579 17C84.2699 16.44 84.5259 15.704 84.5259 14.792V9.44C84.5259 9.008 84.6619 8.664 84.9339 8.408C85.2059 8.152 85.5659 8.024 86.0139 8.024ZM92.1363 20.144C91.7043 20.144 91.3443 20.024 91.0563 19.784C90.7843 19.528 90.6483 19.168 90.6483 18.704V4.376C90.6483 3.912 90.7843 3.56 91.0563 3.32C91.3443 3.08 91.7043 2.96 92.1363 2.96C92.5683 2.96 92.9283 3.08 93.2163 3.32C93.5043 3.56 93.6483 3.912 93.6483 4.376V18.704C93.6483 19.168 93.5043 19.528 93.2163 19.784C92.9283 20.024 92.5683 20.144 92.1363 20.144ZM109.378 20.216C108.146 20.216 106.978 20.056 105.874 19.736C104.786 19.4 103.898 18.952 103.21 18.392C102.842 18.12 102.658 17.736 102.658 17.24C102.658 16.904 102.754 16.616 102.946 16.376C103.154 16.12 103.394 15.992 103.666 15.992C103.954 15.992 104.282 16.104 104.65 16.328C105.338 16.824 106.058 17.184 106.81 17.408C107.562 17.632 108.394 17.744 109.306 17.744C110.474 17.744 111.37 17.544 111.994 17.144C112.618 16.728 112.93 16.128 112.93 15.344C112.93 14.736 112.634 14.272 112.042 13.952C111.466 13.616 110.498 13.296 109.138 12.992C107.73 12.688 106.586 12.336 105.706 11.936C104.826 11.536 104.162 11.024 103.714 10.4C103.266 9.776 103.042 8.984 103.042 8.024C103.042 7.032 103.322 6.144 103.882 5.36C104.442 4.576 105.218 3.968 106.21 3.536C107.218 3.088 108.346 2.864 109.594 2.864C111.882 2.864 113.746 3.472 115.186 4.688C115.394 4.864 115.538 5.04 115.618 5.216C115.714 5.376 115.762 5.584 115.762 5.84C115.762 6.176 115.658 6.472 115.45 6.728C115.258 6.968 115.026 7.088 114.754 7.088C114.594 7.088 114.442 7.064 114.298 7.016C114.17 6.968 113.994 6.88 113.77 6.752C113.114 6.272 112.474 5.92 111.85 5.696C111.242 5.456 110.49 5.336 109.594 5.336C108.506 5.336 107.642 5.56 107.002 6.008C106.378 6.44 106.066 7.048 106.066 7.832C106.066 8.488 106.346 8.992 106.906 9.344C107.466 9.696 108.418 10.024 109.762 10.328C111.186 10.648 112.338 11.008 113.218 11.408C114.114 11.792 114.794 12.288 115.258 12.896C115.738 13.504 115.978 14.264 115.978 15.176C115.978 16.168 115.698 17.048 115.138 17.816C114.594 18.568 113.818 19.16 112.81 19.592C111.818 20.008 110.674 20.216 109.378 20.216ZM123.914 20.192C122.714 20.192 121.658 19.944 120.746 19.448C119.85 18.952 119.154 18.24 118.658 17.312C118.162 16.384 117.914 15.304 117.914 14.072C117.914 12.84 118.162 11.768 118.658 10.856C119.154 9.928 119.85 9.216 120.746 8.72C121.658 8.224 122.714 7.976 123.914 7.976C125.114 7.976 126.162 8.224 127.058 8.72C127.97 9.216 128.666 9.928 129.146 10.856C129.642 11.768 129.89 12.84 129.89 14.072C129.89 15.304 129.642 16.384 129.146 17.312C128.666 18.24 127.97 18.952 127.058 19.448C126.162 19.944 125.114 20.192 123.914 20.192ZM123.89 17.864C124.866 17.864 125.61 17.544 126.122 16.904C126.634 16.264 126.89 15.32 126.89 14.072C126.89 12.84 126.634 11.904 126.122 11.264C125.61 10.608 124.874 10.28 123.914 10.28C122.954 10.28 122.21 10.608 121.682 11.264C121.17 11.904 120.914 12.84 120.914 14.072C120.914 15.32 121.17 16.264 121.682 16.904C122.194 17.544 122.93 17.864 123.89 17.864ZM141.631 8.024C142.095 8.024 142.463 8.152 142.735 8.408C143.007 8.664 143.143 9.008 143.143 9.44V18.752C143.143 19.168 142.999 19.504 142.711 19.76C142.439 20.016 142.079 20.144 141.631 20.144C141.199 20.144 140.855 20.024 140.599 19.784C140.343 19.544 140.215 19.216 140.215 18.8V18.2C139.847 18.84 139.351 19.336 138.727 19.688C138.103 20.024 137.399 20.192 136.615 20.192C133.735 20.192 132.295 18.576 132.295 15.344V9.44C132.295 9.008 132.431 8.664 132.703 8.408C132.975 8.152 133.335 8.024 133.783 8.024C134.247 8.024 134.615 8.152 134.887 8.408C135.159 8.664 135.295 9.008 135.295 9.44V15.368C135.295 16.2 135.463 16.816 135.799 17.216C136.135 17.616 136.663 17.816 137.383 17.816C138.215 17.816 138.879 17.544 139.375 17C139.887 16.44 140.143 15.704 140.143 14.792V9.44C140.143 9.008 140.279 8.664 140.551 8.408C140.823 8.152 141.183 8.024 141.631 8.024ZM147.754 20.144C147.322 20.144 146.962 20.024 146.674 19.784C146.402 19.528 146.266 19.168 146.266 18.704V4.376C146.266 3.912 146.402 3.56 146.674 3.32C146.962 3.08 147.322 2.96 147.754 2.96C148.186 2.96 148.546 3.08 148.834 3.32C149.122 3.56 149.266 3.912 149.266 4.376V18.704C149.266 19.168 149.122 19.528 148.834 19.784C148.546 20.024 148.186 20.144 147.754 20.144Z" fill="#132D84"/>
<path d="M60.6288 42.38C60.9075 42.38 61.1201 42.468 61.2668 42.644C61.4281 42.8053 61.5088 43.0253 61.5088 43.304V57.23C61.5088 57.494 61.4355 57.7067 61.2888 57.868C61.1421 58.0293 60.9368 58.11 60.6728 58.11C60.4088 58.11 60.2108 58.0293 60.0788 57.868C59.9468 57.7067 59.8808 57.494 59.8808 57.23V45.988L55.1068 55.14C54.9015 55.5653 54.6008 55.778 54.2048 55.778C53.8235 55.778 53.5228 55.5653 53.3028 55.14L48.5068 46.098V57.23C48.5068 57.494 48.4335 57.7067 48.2868 57.868C48.1548 58.0293 47.9568 58.11 47.6928 58.11C47.4288 58.11 47.2235 58.0293 47.0768 57.868C46.9301 57.7067 46.8568 57.494 46.8568 57.23V43.304C46.8568 43.0253 46.9375 42.8053 47.0988 42.644C47.2601 42.468 47.4801 42.38 47.7588 42.38C48.1255 42.38 48.4188 42.5927 48.6388 43.018L54.2268 53.732L59.7488 43.018C59.8661 42.7833 59.9908 42.622 60.1228 42.534C60.2695 42.4313 60.4381 42.38 60.6288 42.38ZM69.4689 47.022C72.1529 47.022 73.4949 48.43 73.4949 51.246V57.23C73.4949 57.494 73.4142 57.7067 73.2529 57.868C73.1062 58.0293 72.9009 58.11 72.6369 58.11C72.3729 58.11 72.1602 58.0293 71.9989 57.868C71.8375 57.7067 71.7569 57.494 71.7569 57.23V56.174C71.4782 56.8047 71.0529 57.296 70.4809 57.648C69.9089 57.9853 69.2489 58.154 68.5009 58.154C67.8115 58.154 67.1735 58.0147 66.5869 57.736C66.0149 57.4573 65.5602 57.0687 65.2229 56.57C64.8855 56.0713 64.7169 55.5213 64.7169 54.92C64.7169 54.1133 64.9222 53.49 65.3329 53.05C65.7435 52.5953 66.4182 52.2727 67.3569 52.082C68.2955 51.8767 69.6009 51.774 71.2729 51.774H71.7569V51.048C71.7569 50.168 71.5735 49.5227 71.2069 49.112C70.8549 48.7013 70.2755 48.496 69.4689 48.496C68.4715 48.496 67.4595 48.7673 66.4329 49.31C66.0369 49.5593 65.7582 49.684 65.5969 49.684C65.4209 49.684 65.2742 49.618 65.1569 49.486C65.0395 49.354 64.9809 49.1853 64.9809 48.98C64.9809 48.7747 65.0395 48.5987 65.1569 48.452C65.2889 48.2907 65.4942 48.1293 65.7729 47.968C66.2862 47.6747 66.8655 47.4473 67.5109 47.286C68.1709 47.11 68.8235 47.022 69.4689 47.022ZM68.7429 56.746C69.6229 56.746 70.3415 56.4527 70.8989 55.866C71.4709 55.2647 71.7569 54.4947 71.7569 53.556V52.918H71.3609C70.0702 52.918 69.0875 52.9767 68.4129 53.094C67.7382 53.1967 67.2542 53.38 66.9609 53.644C66.6822 53.8933 66.5429 54.2673 66.5429 54.766C66.5429 55.338 66.7482 55.8147 67.1589 56.196C67.5842 56.5627 68.1122 56.746 68.7429 56.746ZM77.6589 58.11C77.3949 58.11 77.1749 58.0367 76.9989 57.89C76.8375 57.7287 76.7569 57.5087 76.7569 57.23V43.26C76.7569 42.9813 76.8375 42.7687 76.9989 42.622C77.1749 42.4607 77.3949 42.38 77.6589 42.38C77.9082 42.38 78.1135 42.4607 78.2749 42.622C78.4509 42.7687 78.5389 42.9813 78.5389 43.26V57.23C78.5389 57.5087 78.4509 57.7287 78.2749 57.89C78.1135 58.0367 77.9082 58.11 77.6589 58.11ZM82.7722 58.11C82.5082 58.11 82.2882 58.0367 82.1122 57.89C81.9508 57.7287 81.8702 57.5087 81.8702 57.23V47.946C81.8702 47.6673 81.9508 47.4547 82.1122 47.308C82.2882 47.1467 82.5082 47.066 82.7722 47.066C83.0362 47.066 83.2488 47.1467 83.4102 47.308C83.5715 47.4547 83.6522 47.6673 83.6522 47.946V57.23C83.6522 57.5233 83.5715 57.7433 83.4102 57.89C83.2488 58.0367 83.0362 58.11 82.7722 58.11ZM82.7722 44.756C82.4202 44.756 82.1342 44.6533 81.9142 44.448C81.6942 44.2427 81.5842 43.9713 81.5842 43.634C81.5842 43.3113 81.6942 43.0473 81.9142 42.842C82.1342 42.6367 82.4202 42.534 82.7722 42.534C83.1242 42.534 83.4102 42.6367 83.6302 42.842C83.8502 43.0473 83.9602 43.3113 83.9602 43.634C83.9602 43.9713 83.8502 44.2427 83.6302 44.448C83.4102 44.6533 83.1242 44.756 82.7722 44.756ZM95.5414 56.592C95.7761 56.812 95.8934 57.0467 95.8934 57.296C95.8934 57.516 95.8128 57.7067 95.6514 57.868C95.5048 58.0293 95.3214 58.11 95.1014 58.11C94.9108 58.11 94.7128 58.022 94.5074 57.846L88.7654 52.896V57.23C88.7654 57.5087 88.6774 57.7287 88.5014 57.89C88.3401 58.0367 88.1348 58.11 87.8854 58.11C87.6214 58.11 87.4014 58.0367 87.2254 57.89C87.0641 57.7287 86.9834 57.5087 86.9834 57.23V43.26C86.9834 42.9813 87.0641 42.7687 87.2254 42.622C87.4014 42.4607 87.6214 42.38 87.8854 42.38C88.1348 42.38 88.3401 42.4607 88.5014 42.622C88.6774 42.7687 88.7654 42.9813 88.7654 43.26V52.192L94.0234 47.374C94.1994 47.198 94.3974 47.11 94.6174 47.11C94.8374 47.11 95.0281 47.1907 95.1894 47.352C95.3508 47.5133 95.4314 47.704 95.4314 47.924C95.4314 48.1733 95.3288 48.3933 95.1234 48.584L90.7894 52.456L95.5414 56.592ZM102.275 47.022C104.959 47.022 106.301 48.43 106.301 51.246V57.23C106.301 57.494 106.221 57.7067 106.059 57.868C105.913 58.0293 105.707 58.11 105.443 58.11C105.179 58.11 104.967 58.0293 104.805 57.868C104.644 57.7067 104.563 57.494 104.563 57.23V56.174C104.285 56.8047 103.859 57.296 103.287 57.648C102.715 57.9853 102.055 58.154 101.307 58.154C100.618 58.154 99.9802 58.0147 99.3935 57.736C98.8215 57.4573 98.3668 57.0687 98.0295 56.57C97.6922 56.0713 97.5235 55.5213 97.5235 54.92C97.5235 54.1133 97.7288 53.49 98.1395 53.05C98.5502 52.5953 99.2248 52.2727 100.163 52.082C101.102 51.8767 102.407 51.774 104.079 51.774H104.563V51.048C104.563 50.168 104.38 49.5227 104.013 49.112C103.661 48.7013 103.082 48.496 102.275 48.496C101.278 48.496 100.266 48.7673 99.2395 49.31C98.8435 49.5593 98.5648 49.684 98.4035 49.684C98.2275 49.684 98.0808 49.618 97.9635 49.486C97.8462 49.354 97.7875 49.1853 97.7875 48.98C97.7875 48.7747 97.8462 48.5987 97.9635 48.452C98.0955 48.2907 98.3008 48.1293 98.5795 47.968C99.0928 47.6747 99.6722 47.4473 100.317 47.286C100.977 47.11 101.63 47.022 102.275 47.022ZM101.549 56.746C102.429 56.746 103.148 56.4527 103.705 55.866C104.277 55.2647 104.563 54.4947 104.563 53.556V52.918H104.167C102.877 52.918 101.894 52.9767 101.219 53.094C100.545 53.1967 100.061 53.38 99.7675 53.644C99.4888 53.8933 99.3495 54.2673 99.3495 54.766C99.3495 55.338 99.5548 55.8147 99.9655 56.196C100.391 56.5627 100.919 56.746 101.549 56.746Z" fill="#132D84"/>
</svg>
