<svg width="180" height="180" viewBox="0 0 180 180" fill="none" xmlns="http://www.w3.org/2000/svg">
<circle cx="89.3725" cy="89.3718" r="89.3718" fill="#FFEDCB"/>
<mask id="mask0" style="mask-type:alpha" maskUnits="userSpaceOnUse" x="1" y="0" width="180" height="180">
<circle cx="90.6289" cy="89.8359" r="89.3718" fill="#FFEDCB"/>
</mask>
<g mask="url(#mask0)">
<path d="M96.2761 18.4284C74.0487 -4.80727 57.5011 23.8559 59.8088 53.4827C62.0122 81.7395 86.9153 179.321 82.1971 219.46H91.0055C113.279 167.83 124.853 48.3115 96.2761 18.4284Z" fill="#F8C56A"/>
<path d="M88.0007 219.453C110.515 137.491 85.0985 45.0781 85.0043 44.6897C84.8328 43.988 84.1199 43.5539 83.4138 43.7269C82.7093 43.895 82.2755 44.6065 82.4453 45.3082C82.5395 45.6933 107.995 138.243 85.3072 219.453H88.0007Z" fill="#EB7961"/>
<path d="M31.2674 57.0736C5.89714 43.3176 -0.497988 73.3289 9.39149 98.1551C17.6398 118.864 54.2669 180.374 67.7497 219.445H80.3703C81.6705 165.506 61.3528 73.38 31.2674 57.0736Z" fill="#EB7961"/>
<path d="M75.4644 219.446C67.4132 146.26 20.1563 66.3873 19.987 66.0986C19.6589 65.539 18.959 65.3612 18.4179 65.6991C17.8821 66.0353 17.7076 66.7657 18.0339 67.3218C18.2015 67.6122 65.1512 146.971 73.192 219.446H75.4644Z" fill="#F3A464"/>
<path d="M144.757 72.3231C173.243 59.5609 177.757 92.5693 165.1 118.609C156.476 136.361 125.213 182.025 104.431 220.585H81.0695C89.0366 162.423 115.165 85.5825 144.757 72.3231Z" fill="#F8C56A"/>
<path d="M89.3969 220.565C109.484 149.909 156.441 83.0714 156.629 82.8054C157.03 82.2283 157.81 82.0973 158.371 82.5086C158.934 82.92 159.067 83.7243 158.666 84.2952C158.479 84.5633 112.011 150.707 91.9694 220.565H89.3969Z" fill="#EB7961"/>
<path d="M154.87 112.464C175.498 109.949 172.147 131.047 158.929 144.909C146.32 158.129 94.0854 196.703 80.1185 218.695L75.6918 215.089C85.5134 180.17 128.345 115.701 154.87 112.464Z" fill="#FFE2AB"/>
<path d="M108.929 89.8875C123.976 78.5695 130.904 96.6419 126.812 113.507C122.907 129.592 99.3965 183.522 98.3999 207.105L93.2932 206.281C85.1807 174.433 89.5832 104.444 108.929 89.8875Z" fill="#FFE2AB"/>
<path d="M64.3535 29.0326C40.7563 11.2832 29.8908 39.6253 36.3089 66.0739C42.4323 91.2991 79.3027 175.876 80.8658 212.859L88.8743 211.568C101.597 161.621 94.6925 51.8613 64.3535 29.0326Z" fill="#FFE2AB"/>
<path d="M12.3012 101.91C-10.87 99.0857 -7.10605 122.784 7.74236 138.355C21.9055 153.205 80.5787 196.534 96.2674 221.237L101.24 217.187C90.2074 177.963 42.0957 105.547 12.3012 101.91Z" fill="#FFE2AB"/>
<path d="M90.4763 204.493C67.6138 155.03 18.2021 118.511 18.0003 118.353C17.6351 118.067 17.1269 118.12 16.8688 118.474C16.6094 118.825 16.697 119.345 17.0614 119.631C17.2618 119.788 66.7473 156.361 89.2232 205.513L90.4763 204.493Z" fill="white"/>
<path d="M77.3166 216.432C100.179 166.969 149.591 130.45 149.793 130.292C150.158 130.006 150.666 130.059 150.924 130.413C151.184 130.764 151.096 131.284 150.732 131.57C150.531 131.727 101.046 168.3 78.5697 217.452L77.3166 216.432Z" fill="white"/>
<path d="M95.1975 206.587C90.7292 157.42 112.956 106.381 113.043 106.165C113.2 105.776 113.623 105.587 113.986 105.748C114.348 105.906 114.515 106.353 114.358 106.743C114.272 106.957 92.0119 158.071 96.6431 206.82L95.1975 206.587Z" fill="white"/>
<path d="M85.9269 212.041C92.9343 134.934 58.0772 54.8915 57.9413 54.5533C57.6947 53.9427 57.0315 53.6473 56.4623 53.8994C55.8939 54.1469 55.6325 54.8485 55.8776 55.4595C56.013 55.7946 90.9227 135.956 83.6599 212.406L85.9269 212.041Z" fill="white"/>
</g>
</svg>
