<svg width="50" height="51" viewBox="0 0 50 51" fill="none" xmlns="http://www.w3.org/2000/svg">
<circle cx="24.9998" cy="25.0028" r="25" fill="#FFEDCB"/>
<mask id="mask0" mask-type="alpha" maskUnits="userSpaceOnUse" x="-1" y="0" width="51" height="51">
<circle cx="24.9998" cy="25.0028" r="25" fill="#FFEDCB"/>
</mask>
<g mask="url(#mask0)">
<path d="M26.9273 5.16124C20.7096 -1.33849 16.0807 6.67948 16.7263 14.967C17.3426 22.8713 24.3088 50.1677 22.989 61.3958H25.4529C31.6834 46.9534 34.921 13.5205 26.9273 5.16124Z" fill="#F8C56A"/>
<path d="M24.6173 61.3928C30.9153 38.4653 23.8054 12.6147 23.7791 12.5061C23.7311 12.3098 23.5317 12.1884 23.3342 12.2367C23.1371 12.2838 23.0158 12.4828 23.0633 12.6791C23.0896 12.7868 30.2103 38.6758 23.8638 61.3928H24.6173Z" fill="#EB7961"/>
<path d="M8.74784 15.9683C1.651 12.1203 -0.137909 20.5154 2.62848 27.46C4.93578 33.253 15.1815 50.4592 18.953 61.3884H22.4834C22.8471 46.3002 17.1636 20.5297 8.74784 15.9683Z" fill="#EB7961"/>
<path d="M21.1093 61.391C18.8571 40.9186 5.63792 18.5758 5.59056 18.4951C5.49877 18.3385 5.30299 18.2888 5.15165 18.3833C5.00176 18.4774 4.95294 18.6817 5.04424 18.8373C5.09111 18.9185 18.2244 41.1175 20.4736 61.391H21.1093Z" fill="#F3A464"/>
<path d="M40.4933 20.2333C48.4615 16.6633 49.7244 25.8968 46.1837 33.1809C43.7712 38.1466 35.0261 50.9202 29.2127 61.7068H22.6779C24.9065 45.437 32.2153 23.9423 40.4933 20.2333Z" fill="#F8C56A"/>
<path d="M25.0061 61.7007C30.6249 41.936 43.7604 23.2396 43.813 23.1652C43.9252 23.0037 44.1434 22.9671 44.3002 23.0822C44.4576 23.1972 44.4949 23.4222 44.3826 23.5819C44.3306 23.6569 31.3319 42.1593 25.7257 61.7007H25.0061Z" fill="#EB7961"/>
<path d="M43.3224 31.4652C49.0928 30.7618 48.1554 36.6635 44.4577 40.5411C40.9306 44.2391 26.3191 55.0296 22.4121 61.1813L21.1738 60.1727C23.9212 50.4047 35.9026 32.3709 43.3224 31.4652Z" fill="#FFE2AB"/>
<path d="M30.472 25.146C34.681 21.98 36.6191 27.0354 35.4743 31.7531C34.3821 36.2525 27.8055 51.3385 27.5267 57.9352L26.0982 57.7049C23.8289 48.7959 25.0604 29.218 30.472 25.146Z" fill="#FFE2AB"/>
<path d="M18.0053 8.12548C11.4044 3.16044 8.365 11.0886 10.1603 18.4871C11.8733 25.5433 22.187 49.2019 22.6243 59.5473L24.8645 59.1861C28.4233 45.2145 26.492 14.5114 18.0053 8.12548Z" fill="#FFE2AB"/>
<circle cx="25.1386" cy="24.8597" r="8.32821" fill="white"/>
<path d="M3.49493 28.4024C-2.78089 27.6374 -1.76144 34.0561 2.2602 38.2734C6.09622 42.2953 21.9876 54.031 26.2368 60.7215L27.5836 59.6247C24.5955 49.001 11.5647 29.3875 3.49493 28.4024Z" fill="#FFE2AB"/>
<path d="M25.3047 57.2086C18.9094 43.3725 5.08746 33.1568 5.03102 33.1125C4.92887 33.0327 4.78671 33.0476 4.71449 33.1466C4.64194 33.2448 4.66643 33.3901 4.76837 33.4702C4.82444 33.514 18.667 43.7447 24.9542 57.4941L25.3047 57.2086Z" fill="white"/>
<path d="M21.6279 60.5487C28.0232 46.7125 41.8452 36.4969 41.9016 36.4526C42.0037 36.3728 42.1459 36.3877 42.2181 36.4867C42.2907 36.5848 42.2662 36.7302 42.1642 36.8102C42.1082 36.854 28.2656 47.0847 21.9784 60.8341L21.6279 60.5487Z" fill="white"/>
<path d="M26.6254 57.7931C25.3755 44.0395 31.593 29.7623 31.6172 29.702C31.6612 29.5931 31.7795 29.5404 31.8811 29.5854C31.9824 29.6295 32.0291 29.7547 31.9853 29.8636C31.9612 29.9234 25.7343 44.2218 27.0298 57.8584L26.6254 57.7931Z" fill="white"/>
<path d="M24.0328 59.3198C25.993 37.7506 16.2424 15.3603 16.2044 15.2657C16.1355 15.0949 15.9499 15.0123 15.7907 15.0828C15.6317 15.152 15.5586 15.3483 15.6272 15.5192C15.665 15.613 25.4303 38.0364 23.3987 59.422L24.0328 59.3198Z" fill="white"/>
</g>
</svg>
