<svg width="375" height="545" viewBox="0 0 375 545" fill="none" xmlns="http://www.w3.org/2000/svg">
<path fill-rule="evenodd" clip-rule="evenodd" d="M84.337 348.152C57.5478 305.864 21.937 298.749 0.00137329 239.73V-153.218C0.00137329 -171.996 15.2237 -187.218 34.0014 -187.218H340.689C359.466 -187.218 374.689 -171.996 374.689 -153.218V155.389C374.399 155.49 374.974 155.591 374.689 155.691C360.827 160.551 351.268 163.776 342.705 188.55C325.714 237.71 357.198 300.338 328.212 340.07C306.427 369.932 278.409 381.651 268.333 424.393C261.017 455.43 260.837 542.096 189.986 544.79C119.135 547.484 127.942 416.984 84.337 348.152Z" fill="#FFE2AB"/>
</svg>
